<?xml version="1.0" encoding="utf-8" standalone="no"?>
<!DOCTYPE svg PUBLIC "-//W3C//DTD SVG 1.1//EN"
  "http://www.w3.org/Graphics/SVG/1.1/DTD/svg11.dtd">
<!-- Created with matplotlib (http://matplotlib.org/) -->
<svg height="288pt" version="1.1" viewBox="0 0 576 288" width="576pt" xmlns="http://www.w3.org/2000/svg" xmlns:xlink="http://www.w3.org/1999/xlink">
 <defs>
  <style type="text/css">
*{stroke-linecap:butt;stroke-linejoin:round;stroke-miterlimit:100000;}
  </style>
 </defs>
 <g id="figure_1">
  <g id="patch_1">
   <path d="M 0 288 
L 576 288 
L 576 0 
L 0 0 
z
" style="fill:#ffffff;"/>
  </g>
  <g id="axes_1">
   <g id="patch_2">
    <path d="M 72 130.254545 
L 203.294118 130.254545 
L 203.294118 28.8 
L 72 28.8 
z
" style="fill:#ffffff;"/>
   </g>
   <g id="line2d_1">
    <path clip-path="url(#p3f5bf18367)" d="M 137.647059 28.8 
L 143.856138 28.825285 
L 150.009551 28.901113 
L 161.929696 29.20405 
L 172.980976 29.707602 
L 182.76796 30.409763 
L 190.940457 31.307733 
L 194.327332 31.829058 
L 197.206043 32.397933 
L 199.550783 33.01379 
L 201.340528 33.676016 
L 202.559234 34.383951 
L 203.195974 35.136889 
L 203.24504 35.93408 
L 202.705991 36.774728 
L 201.583661 37.657996 
L 199.888111 38.583004 
L 197.634543 39.548828 
L 194.843161 40.554508 
L 187.751657 42.681381 
L 178.867342 44.955146 
L 168.508109 47.366738 
L 120.239074 58.191688 
L 108.630569 61.138611 
L 98.060314 64.158849 
L 93.284555 65.692709 
L 88.906526 67.240363 
L 84.965477 68.800268 
L 81.496741 70.370869 
L 78.531417 71.9506 
L 76.096091 73.537887 
L 74.212595 75.131147 
L 72.897818 76.728793 
L 72.163545 78.329232 
L 72.016361 79.930867 
L 72.457584 81.532104 
L 73.483259 83.131346 
L 75.084191 84.726998 
L 77.246026 86.317469 
L 79.949382 87.901176 
L 83.170023 89.476538 
L 86.879075 91.041986 
L 91.043284 92.595959 
L 95.625315 94.136908 
L 100.58409 95.663297 
L 111.45106 98.666324 
L 123.255359 101.59307 
L 141.789887 105.814735 
L 176.402134 113.515378 
L 185.687252 115.824471 
L 193.253428 117.988886 
L 196.304625 119.014119 
L 198.829931 119.999994 
L 200.806707 120.945528 
L 202.217229 121.849778 
L 203.048851 122.711844 
L 203.294118 123.530865 
L 202.95083 124.306026 
L 202.022065 125.036554 
L 200.516151 125.72172 
L 198.446588 126.360841 
L 195.831931 126.953281 
L 192.695621 127.498449 
L 184.974941 128.444842 
L 175.560805 129.196249 
L 164.790064 129.749672 
L 153.048109 130.102907 
L 140.755084 130.254545 
L 128.350849 130.203983 
L 116.279245 129.95142 
L 104.972211 129.497865 
L 94.834327 128.845124 
L 86.228341 127.995801 
L 82.598497 127.498449 
L 79.462187 126.953281 
L 76.84753 126.360841 
L 74.777967 125.72172 
L 73.272052 125.036554 
L 72.343288 124.306026 
L 72 123.530865 
L 72.245267 122.711844 
L 73.076889 121.849778 
L 74.487411 120.945528 
L 76.464186 119.999994 
L 78.989493 119.014119 
L 82.04069 117.988886 
L 89.606865 115.824471 
L 98.891984 113.515378 
L 115.301988 109.80075 
L 145.916201 103.024178 
L 158.032289 100.139969 
L 169.418967 97.173604 
L 179.668802 94.136908 
L 184.250834 92.595959 
L 188.415043 91.041986 
L 192.124094 89.476538 
L 195.344735 87.901176 
L 198.048092 86.317469 
L 200.209927 84.726998 
L 201.810858 83.131346 
L 202.836534 81.532104 
L 203.277757 79.930867 
L 203.130573 78.329232 
L 202.3963 76.728793 
L 201.081522 75.131147 
L 199.198027 73.537887 
L 196.7627 71.9506 
L 193.797377 70.370869 
L 190.328641 68.800268 
L 186.387591 67.240363 
L 182.009562 65.692709 
L 177.233804 64.158849 
L 166.663549 61.138611 
L 155.055044 58.191688 
L 142.823658 55.329828 
L 118.249492 49.906543 
L 101.444105 46.144302 
L 91.779005 43.800455 
L 83.755127 41.599039 
L 80.450957 40.554508 
L 77.659575 39.548828 
L 75.406007 38.583004 
L 73.710457 37.657996 
L 72.588127 36.774728 
L 72.049078 35.93408 
L 72.098143 35.136889 
L 72.734883 34.383951 
L 73.953589 33.676016 
L 75.743335 33.01379 
L 78.088074 32.397933 
L 80.966786 31.829058 
L 84.353661 31.307733 
L 92.526158 30.409763 
L 102.313142 29.707602 
L 113.364421 29.20405 
L 125.284567 28.901113 
L 137.647059 28.8 
L 137.647059 28.8 
" style="fill:none;stroke:#0000ff;stroke-linecap:square;"/>
   </g>
   <g id="patch_3">
    <path d="M 203.294118 130.254545 
L 203.294118 28.8 
" style="fill:none;stroke:#000000;stroke-linecap:square;stroke-linejoin:miter;"/>
   </g>
   <g id="patch_4">
    <path d="M 72 130.254545 
L 72 28.8 
" style="fill:none;stroke:#000000;stroke-linecap:square;stroke-linejoin:miter;"/>
   </g>
   <g id="patch_5">
    <path d="M 72 130.254545 
L 203.294118 130.254545 
" style="fill:none;stroke:#000000;stroke-linecap:square;stroke-linejoin:miter;"/>
   </g>
   <g id="patch_6">
    <path d="M 72 28.8 
L 203.294118 28.8 
" style="fill:none;stroke:#000000;stroke-linecap:square;stroke-linejoin:miter;"/>
   </g>
   <g id="matplotlib.axis_1"/>
   <g id="matplotlib.axis_2"/>
   <g id="text_1">
    <!-- subplot(2,3,1) -->
    <defs>
     <path d="M 12.40625 8.296875 
L 28.515625 8.296875 
L 28.515625 63.921875 
L 10.984375 60.40625 
L 10.984375 69.390625 
L 28.421875 72.90625 
L 38.28125 72.90625 
L 38.28125 8.296875 
L 54.390625 8.296875 
L 54.390625 0 
L 12.40625 0 
z
" id="BitstreamVeraSans-Roman-31"/>
     <path d="M 40.578125 39.3125 
Q 47.65625 37.796875 51.625 33 
Q 55.609375 28.21875 55.609375 21.1875 
Q 55.609375 10.40625 48.1875 4.484375 
Q 40.765625 -1.421875 27.09375 -1.421875 
Q 22.515625 -1.421875 17.65625 -0.515625 
Q 12.796875 0.390625 7.625 2.203125 
L 7.625 11.71875 
Q 11.71875 9.328125 16.59375 8.109375 
Q 21.484375 6.890625 26.8125 6.890625 
Q 36.078125 6.890625 40.9375 10.546875 
Q 45.796875 14.203125 45.796875 21.1875 
Q 45.796875 27.640625 41.28125 31.265625 
Q 36.765625 34.90625 28.71875 34.90625 
L 20.21875 34.90625 
L 20.21875 43.015625 
L 29.109375 43.015625 
Q 36.375 43.015625 40.234375 45.921875 
Q 44.09375 48.828125 44.09375 54.296875 
Q 44.09375 59.90625 40.109375 62.90625 
Q 36.140625 65.921875 28.71875 65.921875 
Q 24.65625 65.921875 20.015625 65.03125 
Q 15.375 64.15625 9.8125 62.3125 
L 9.8125 71.09375 
Q 15.4375 72.65625 20.34375 73.4375 
Q 25.25 74.21875 29.59375 74.21875 
Q 40.828125 74.21875 47.359375 69.109375 
Q 53.90625 64.015625 53.90625 55.328125 
Q 53.90625 49.265625 50.4375 45.09375 
Q 46.96875 40.921875 40.578125 39.3125 
" id="BitstreamVeraSans-Roman-33"/>
     <path d="M 8.5 21.578125 
L 8.5 54.6875 
L 17.484375 54.6875 
L 17.484375 21.921875 
Q 17.484375 14.15625 20.5 10.265625 
Q 23.53125 6.390625 29.59375 6.390625 
Q 36.859375 6.390625 41.078125 11.03125 
Q 45.3125 15.671875 45.3125 23.6875 
L 45.3125 54.6875 
L 54.296875 54.6875 
L 54.296875 0 
L 45.3125 0 
L 45.3125 8.40625 
Q 42.046875 3.421875 37.71875 1 
Q 33.40625 -1.421875 27.6875 -1.421875 
Q 18.265625 -1.421875 13.375 4.4375 
Q 8.5 10.296875 8.5 21.578125 
" id="BitstreamVeraSans-Roman-75"/>
     <path d="M 31 75.875 
Q 24.46875 64.65625 21.28125 53.65625 
Q 18.109375 42.671875 18.109375 31.390625 
Q 18.109375 20.125 21.3125 9.0625 
Q 24.515625 -2 31 -13.1875 
L 23.1875 -13.1875 
Q 15.875 -1.703125 12.234375 9.375 
Q 8.59375 20.453125 8.59375 31.390625 
Q 8.59375 42.28125 12.203125 53.3125 
Q 15.828125 64.359375 23.1875 75.875 
z
" id="BitstreamVeraSans-Roman-28"/>
     <path d="M 30.609375 48.390625 
Q 23.390625 48.390625 19.1875 42.75 
Q 14.984375 37.109375 14.984375 27.296875 
Q 14.984375 17.484375 19.15625 11.84375 
Q 23.34375 6.203125 30.609375 6.203125 
Q 37.796875 6.203125 41.984375 11.859375 
Q 46.1875 17.53125 46.1875 27.296875 
Q 46.1875 37.015625 41.984375 42.703125 
Q 37.796875 48.390625 30.609375 48.390625 
M 30.609375 56 
Q 42.328125 56 49.015625 48.375 
Q 55.71875 40.765625 55.71875 27.296875 
Q 55.71875 13.875 49.015625 6.21875 
Q 42.328125 -1.421875 30.609375 -1.421875 
Q 18.84375 -1.421875 12.171875 6.21875 
Q 5.515625 13.875 5.515625 27.296875 
Q 5.515625 40.765625 12.171875 48.375 
Q 18.84375 56 30.609375 56 
" id="BitstreamVeraSans-Roman-6f"/>
     <path d="M 44.28125 53.078125 
L 44.28125 44.578125 
Q 40.484375 46.53125 36.375 47.5 
Q 32.28125 48.484375 27.875 48.484375 
Q 21.1875 48.484375 17.84375 46.4375 
Q 14.5 44.390625 14.5 40.28125 
Q 14.5 37.15625 16.890625 35.375 
Q 19.28125 33.59375 26.515625 31.984375 
L 29.59375 31.296875 
Q 39.15625 29.25 43.1875 25.515625 
Q 47.21875 21.78125 47.21875 15.09375 
Q 47.21875 7.46875 41.1875 3.015625 
Q 35.15625 -1.421875 24.609375 -1.421875 
Q 20.21875 -1.421875 15.453125 -0.5625 
Q 10.6875 0.296875 5.421875 2 
L 5.421875 11.28125 
Q 10.40625 8.6875 15.234375 7.390625 
Q 20.0625 6.109375 24.8125 6.109375 
Q 31.15625 6.109375 34.5625 8.28125 
Q 37.984375 10.453125 37.984375 14.40625 
Q 37.984375 18.0625 35.515625 20.015625 
Q 33.0625 21.96875 24.703125 23.78125 
L 21.578125 24.515625 
Q 13.234375 26.265625 9.515625 29.90625 
Q 5.8125 33.546875 5.8125 39.890625 
Q 5.8125 47.609375 11.28125 51.796875 
Q 16.75 56 26.8125 56 
Q 31.78125 56 36.171875 55.265625 
Q 40.578125 54.546875 44.28125 53.078125 
" id="BitstreamVeraSans-Roman-73"/>
     <path d="M 11.71875 12.40625 
L 22.015625 12.40625 
L 22.015625 4 
L 14.015625 -11.625 
L 7.71875 -11.625 
L 11.71875 4 
z
" id="BitstreamVeraSans-Roman-2c"/>
     <path d="M 9.421875 75.984375 
L 18.40625 75.984375 
L 18.40625 0 
L 9.421875 0 
z
" id="BitstreamVeraSans-Roman-6c"/>
     <path d="M 8.015625 75.875 
L 15.828125 75.875 
Q 23.140625 64.359375 26.78125 53.3125 
Q 30.421875 42.28125 30.421875 31.390625 
Q 30.421875 20.453125 26.78125 9.375 
Q 23.140625 -1.703125 15.828125 -13.1875 
L 8.015625 -13.1875 
Q 14.5 -2 17.703125 9.0625 
Q 20.90625 20.125 20.90625 31.390625 
Q 20.90625 42.671875 17.703125 53.65625 
Q 14.5 64.65625 8.015625 75.875 
" id="BitstreamVeraSans-Roman-29"/>
     <path d="M 19.1875 8.296875 
L 53.609375 8.296875 
L 53.609375 0 
L 7.328125 0 
L 7.328125 8.296875 
Q 12.9375 14.109375 22.625 23.890625 
Q 32.328125 33.6875 34.8125 36.53125 
Q 39.546875 41.84375 41.421875 45.53125 
Q 43.3125 49.21875 43.3125 52.78125 
Q 43.3125 58.59375 39.234375 62.25 
Q 35.15625 65.921875 28.609375 65.921875 
Q 23.96875 65.921875 18.8125 64.3125 
Q 13.671875 62.703125 7.8125 59.421875 
L 7.8125 69.390625 
Q 13.765625 71.78125 18.9375 73 
Q 24.125 74.21875 28.421875 74.21875 
Q 39.75 74.21875 46.484375 68.546875 
Q 53.21875 62.890625 53.21875 53.421875 
Q 53.21875 48.921875 51.53125 44.890625 
Q 49.859375 40.875 45.40625 35.40625 
Q 44.1875 33.984375 37.640625 27.21875 
Q 31.109375 20.453125 19.1875 8.296875 
" id="BitstreamVeraSans-Roman-32"/>
     <path d="M 48.6875 27.296875 
Q 48.6875 37.203125 44.609375 42.84375 
Q 40.53125 48.484375 33.40625 48.484375 
Q 26.265625 48.484375 22.1875 42.84375 
Q 18.109375 37.203125 18.109375 27.296875 
Q 18.109375 17.390625 22.1875 11.75 
Q 26.265625 6.109375 33.40625 6.109375 
Q 40.53125 6.109375 44.609375 11.75 
Q 48.6875 17.390625 48.6875 27.296875 
M 18.109375 46.390625 
Q 20.953125 51.265625 25.265625 53.625 
Q 29.59375 56 35.59375 56 
Q 45.5625 56 51.78125 48.09375 
Q 58.015625 40.1875 58.015625 27.296875 
Q 58.015625 14.40625 51.78125 6.484375 
Q 45.5625 -1.421875 35.59375 -1.421875 
Q 29.59375 -1.421875 25.265625 0.953125 
Q 20.953125 3.328125 18.109375 8.203125 
L 18.109375 0 
L 9.078125 0 
L 9.078125 75.984375 
L 18.109375 75.984375 
z
" id="BitstreamVeraSans-Roman-62"/>
     <path d="M 18.3125 70.21875 
L 18.3125 54.6875 
L 36.8125 54.6875 
L 36.8125 47.703125 
L 18.3125 47.703125 
L 18.3125 18.015625 
Q 18.3125 11.328125 20.140625 9.421875 
Q 21.96875 7.515625 27.59375 7.515625 
L 36.8125 7.515625 
L 36.8125 0 
L 27.59375 0 
Q 17.1875 0 13.234375 3.875 
Q 9.28125 7.765625 9.28125 18.015625 
L 9.28125 47.703125 
L 2.6875 47.703125 
L 2.6875 54.6875 
L 9.28125 54.6875 
L 9.28125 70.21875 
z
" id="BitstreamVeraSans-Roman-74"/>
     <path d="M 18.109375 8.203125 
L 18.109375 -20.796875 
L 9.078125 -20.796875 
L 9.078125 54.6875 
L 18.109375 54.6875 
L 18.109375 46.390625 
Q 20.953125 51.265625 25.265625 53.625 
Q 29.59375 56 35.59375 56 
Q 45.5625 56 51.78125 48.09375 
Q 58.015625 40.1875 58.015625 27.296875 
Q 58.015625 14.40625 51.78125 6.484375 
Q 45.5625 -1.421875 35.59375 -1.421875 
Q 29.59375 -1.421875 25.265625 0.953125 
Q 20.953125 3.328125 18.109375 8.203125 
M 48.6875 27.296875 
Q 48.6875 37.203125 44.609375 42.84375 
Q 40.53125 48.484375 33.40625 48.484375 
Q 26.265625 48.484375 22.1875 42.84375 
Q 18.109375 37.203125 18.109375 27.296875 
Q 18.109375 17.390625 22.1875 11.75 
Q 26.265625 6.109375 33.40625 6.109375 
Q 40.53125 6.109375 44.609375 11.75 
Q 48.6875 17.390625 48.6875 27.296875 
" id="BitstreamVeraSans-Roman-70"/>
    </defs>
    <g transform="translate(95.4623713235 23.8)scale(0.12 -0.12)">
     <use xlink:href="#BitstreamVeraSans-Roman-73"/>
     <use x="52.099609375" xlink:href="#BitstreamVeraSans-Roman-75"/>
     <use x="115.478515625" xlink:href="#BitstreamVeraSans-Roman-62"/>
     <use x="178.955078125" xlink:href="#BitstreamVeraSans-Roman-70"/>
     <use x="242.431640625" xlink:href="#BitstreamVeraSans-Roman-6c"/>
     <use x="270.21484375" xlink:href="#BitstreamVeraSans-Roman-6f"/>
     <use x="331.396484375" xlink:href="#BitstreamVeraSans-Roman-74"/>
     <use x="370.60546875" xlink:href="#BitstreamVeraSans-Roman-28"/>
     <use x="409.619140625" xlink:href="#BitstreamVeraSans-Roman-32"/>
     <use x="473.2421875" xlink:href="#BitstreamVeraSans-Roman-2c"/>
     <use x="505.029296875" xlink:href="#BitstreamVeraSans-Roman-33"/>
     <use x="568.65234375" xlink:href="#BitstreamVeraSans-Roman-2c"/>
     <use x="600.439453125" xlink:href="#BitstreamVeraSans-Roman-31"/>
     <use x="664.0625" xlink:href="#BitstreamVeraSans-Roman-29"/>
    </g>
   </g>
  </g>
  <g id="axes_2">
   <g id="patch_7">
    <path d="M 229.552941 130.254545 
L 360.847059 130.254545 
L 360.847059 28.8 
L 229.552941 28.8 
z
" style="fill:#ffffff;"/>
   </g>
   <g id="line2d_2">
    <path clip-path="url(#p80b31ac44f)" d="M 295.2 28.8 
L 301.40908 28.901113 
L 307.562492 29.20405 
L 313.60507 29.707602 
L 319.482638 30.409763 
L 325.142501 31.307733 
L 330.533917 32.397933 
L 335.608549 33.676016 
L 340.320901 35.136889 
L 344.628725 36.774728 
L 348.493398 38.583004 
L 351.880273 40.554508 
L 354.758984 42.681381 
L 357.103724 44.955146 
L 358.893469 47.366738 
L 360.112175 49.906543 
L 360.748915 52.564439 
L 360.797981 55.329828 
L 360.258932 58.191688 
L 359.136602 61.138611 
L 357.441052 64.158849 
L 355.187484 67.240363 
L 352.396102 70.370869 
L 349.091932 73.537887 
L 345.304598 76.728793 
L 341.068054 79.930867 
L 336.420283 83.131346 
L 331.402954 86.317469 
L 326.06105 89.476538 
L 320.442464 92.595959 
L 314.597567 95.663297 
L 308.578763 98.666324 
L 296.236353 104.431868 
L 283.85686 109.80075 
L 271.88324 114.687447 
L 260.743926 119.014119 
L 246.459467 124.306026 
L 229.716486 130.203983 
L 229.569302 130.254545 
L 229.569302 130.254545 
L 229.569302 130.254545 
L 244.432016 125.036554 
L 258.137031 119.999994 
L 269.004001 115.824471 
L 280.8083 111.070811 
L 293.127553 105.814735 
L 305.520961 100.139969 
L 311.606562 97.173604 
L 317.545071 94.136908 
L 323.283247 91.041986 
L 328.769644 87.901176 
L 333.955075 84.726998 
L 338.79305 81.532104 
L 343.240194 78.329232 
L 347.256636 75.131147 
L 350.806369 71.9506 
L 353.857566 68.800268 
L 356.382873 65.692709 
L 358.359648 62.640312 
L 359.77017 59.655244 
L 360.601792 56.749404 
L 360.847059 53.934376 
L 360.503771 51.221381 
L 359.575007 48.621235 
L 358.069092 46.144302 
L 355.999529 43.800455 
L 353.384872 41.599039 
L 350.248562 39.548828 
L 346.618717 37.657996 
L 342.527882 35.93408 
L 338.012731 34.383951 
L 333.113746 33.01379 
L 327.874848 31.829058 
L 322.343005 30.834477 
L 316.567813 30.034013 
L 310.60105 29.430856 
L 304.49621 29.02741 
L 298.308025 28.825285 
L 292.091975 28.825285 
L 285.90379 29.02741 
L 279.79895 29.430856 
L 273.832187 30.034013 
L 268.056995 30.834477 
L 262.525152 31.829058 
L 257.286254 33.01379 
L 252.387269 34.383951 
L 247.872118 35.93408 
L 243.781283 37.657996 
L 240.151438 39.548828 
L 237.015128 41.599039 
L 234.400471 43.800455 
L 232.330908 46.144302 
L 230.824993 48.621235 
L 229.896229 51.221381 
L 229.552941 53.934376 
L 229.798208 56.749404 
L 230.62983 59.655244 
L 232.040352 62.640312 
L 234.017127 65.692709 
L 236.542434 68.800268 
L 239.593631 71.9506 
L 243.143364 75.131147 
L 247.159806 78.329232 
L 251.60695 81.532104 
L 256.444925 84.726998 
L 261.630356 87.901176 
L 267.116753 91.041986 
L 272.854929 94.136908 
L 278.793438 97.173604 
L 284.879039 100.139969 
L 297.272447 105.814735 
L 309.5917 111.070811 
L 321.395999 115.824471 
L 337.221744 121.849778 
L 352.897677 127.498449 
L 360.830698 130.254545 
L 354.315642 127.995801 
L 354.315642 127.995801 
L 339.562503 122.711844 
L 324.21649 116.925317 
L 312.607985 112.309432 
L 300.376599 107.171401 
L 287.959987 101.59307 
L 281.821237 98.666324 
L 275.802433 95.663297 
L 269.957536 92.595959 
L 264.33895 89.476538 
L 258.997046 86.317469 
L 253.979717 83.131346 
L 249.331946 79.930867 
L 245.095402 76.728793 
L 241.308068 73.537887 
L 238.003898 70.370869 
L 235.212516 67.240363 
L 232.958948 64.158849 
L 231.263398 61.138611 
L 230.141068 58.191688 
L 229.602019 55.329828 
L 229.651085 52.564439 
L 230.287825 49.906543 
L 231.506531 47.366738 
L 233.296276 44.955146 
L 235.641016 42.681381 
L 238.519727 40.554508 
L 241.906602 38.583004 
L 245.771275 36.774728 
L 250.079099 35.136889 
L 254.791451 33.676016 
L 259.866083 32.397933 
L 265.257499 31.307733 
L 270.917362 30.409763 
L 276.79493 29.707602 
L 282.837508 29.20405 
L 288.99092 28.901113 
L 295.2 28.8 
L 295.2 28.8 
" style="fill:none;stroke:#0000ff;stroke-linecap:square;"/>
   </g>
   <g id="patch_8">
    <path d="M 360.847059 130.254545 
L 360.847059 28.8 
" style="fill:none;stroke:#000000;stroke-linecap:square;stroke-linejoin:miter;"/>
   </g>
   <g id="patch_9">
    <path d="M 229.552941 130.254545 
L 229.552941 28.8 
" style="fill:none;stroke:#000000;stroke-linecap:square;stroke-linejoin:miter;"/>
   </g>
   <g id="patch_10">
    <path d="M 229.552941 130.254545 
L 360.847059 130.254545 
" style="fill:none;stroke:#000000;stroke-linecap:square;stroke-linejoin:miter;"/>
   </g>
   <g id="patch_11">
    <path d="M 229.552941 28.8 
L 360.847059 28.8 
" style="fill:none;stroke:#000000;stroke-linecap:square;stroke-linejoin:miter;"/>
   </g>
   <g id="matplotlib.axis_3"/>
   <g id="matplotlib.axis_4"/>
   <g id="text_2">
    <!-- subplot(2,3,2) -->
    <g transform="translate(253.0153125 23.8)scale(0.12 -0.12)">
     <use xlink:href="#BitstreamVeraSans-Roman-73"/>
     <use x="52.099609375" xlink:href="#BitstreamVeraSans-Roman-75"/>
     <use x="115.478515625" xlink:href="#BitstreamVeraSans-Roman-62"/>
     <use x="178.955078125" xlink:href="#BitstreamVeraSans-Roman-70"/>
     <use x="242.431640625" xlink:href="#BitstreamVeraSans-Roman-6c"/>
     <use x="270.21484375" xlink:href="#BitstreamVeraSans-Roman-6f"/>
     <use x="331.396484375" xlink:href="#BitstreamVeraSans-Roman-74"/>
     <use x="370.60546875" xlink:href="#BitstreamVeraSans-Roman-28"/>
     <use x="409.619140625" xlink:href="#BitstreamVeraSans-Roman-32"/>
     <use x="473.2421875" xlink:href="#BitstreamVeraSans-Roman-2c"/>
     <use x="505.029296875" xlink:href="#BitstreamVeraSans-Roman-33"/>
     <use x="568.65234375" xlink:href="#BitstreamVeraSans-Roman-2c"/>
     <use x="600.439453125" xlink:href="#BitstreamVeraSans-Roman-32"/>
     <use x="664.0625" xlink:href="#BitstreamVeraSans-Roman-29"/>
    </g>
   </g>
  </g>
  <g id="axes_3">
   <g id="patch_12">
    <path d="M 72 252 
L 203.294118 252 
L 203.294118 150.545455 
L 72 150.545455 
z
" style="fill:#ffffff;"/>
   </g>
   <g id="line2d_3">
    <path clip-path="url(#p557e64692a)" d="M 137.647059 150.545455 
L 143.856138 150.949504 
L 150.009551 152.155217 
L 156.052128 154.143387 
L 161.929696 156.882344 
L 167.58956 160.328458 
L 172.980976 164.426836 
L 178.055608 169.112192 
L 182.76796 174.309893 
L 187.075783 179.937143 
L 190.940457 185.904304 
L 194.327332 192.116323 
L 197.206043 198.474248 
L 199.550783 204.8768 
L 201.340528 211.221993 
L 202.559234 217.408751 
L 203.195974 223.338525 
L 203.24504 228.916856 
L 202.705991 234.054887 
L 201.583661 238.670771 
L 199.888111 242.690982 
L 197.634543 246.051481 
L 194.843161 248.698736 
L 191.538991 250.590579 
L 187.751657 251.696875 
L 183.515113 252 
L 178.867342 251.495127 
L 173.850013 250.190297 
L 168.508109 248.106296 
L 162.889522 245.27632 
L 157.044626 241.745448 
L 151.025822 237.569926 
L 144.887072 232.816266 
L 138.683411 227.56019 
L 132.47046 221.885424 
L 126.303919 215.882362 
L 120.239074 209.64663 
L 114.330299 203.277559 
L 108.630569 196.876602 
L 103.190985 190.545722 
L 93.284555 178.494859 
L 84.965477 167.889756 
L 76.096091 156.129406 
L 72.016361 150.570739 
L 75.084191 154.759245 
L 75.084191 154.759245 
L 83.170023 165.54591 
L 91.043284 175.679831 
L 100.58409 187.438164 
L 105.875151 193.696054 
L 111.45106 200.074686 
L 117.261828 206.472452 
L 123.255359 212.787441 
L 129.377917 218.919058 
L 135.574612 224.769633 
L 141.789887 230.245969 
L 147.96802 235.260833 
L 154.053621 239.734341 
L 159.99213 243.595233 
L 165.730306 246.782008 
L 171.216703 249.243904 
L 176.402134 250.941703 
L 181.240108 251.848362 
L 185.687252 251.949437 
L 189.703695 251.243319 
L 193.253428 249.741256 
L 196.304625 247.467174 
L 198.829931 244.457298 
L 200.806707 240.759574 
L 202.217229 236.432902 
L 203.048851 231.546204 
L 203.294118 226.177322 
L 202.95083 220.411778 
L 202.022065 214.341413 
L 200.516151 208.062924 
L 198.446588 201.676322 
L 195.831931 195.283341 
L 192.695621 188.985818 
L 189.065776 182.884066 
L 184.974941 177.075283 
L 180.45979 171.651998 
L 175.560805 166.7006 
L 170.321907 162.299962 
L 164.790064 158.520183 
L 159.014872 155.421471 
L 153.048109 153.053187 
L 146.943269 151.453057 
L 140.755084 150.646568 
L 134.539034 150.646568 
L 128.350849 151.453057 
L 122.246009 153.053187 
L 116.279245 155.421471 
L 110.504054 158.520183 
L 104.972211 162.299962 
L 99.733313 166.7006 
L 94.834327 171.651998 
L 90.319177 177.075283 
L 86.228341 182.884066 
L 82.598497 188.985818 
L 79.462187 195.283341 
L 76.84753 201.676322 
L 74.777967 208.062924 
L 73.272052 214.341413 
L 72.343288 220.411778 
L 72 226.177322 
L 72.245267 231.546204 
L 73.076889 236.432902 
L 74.487411 240.759574 
L 76.464186 244.457298 
L 78.989493 247.467174 
L 82.04069 249.741256 
L 85.590422 251.243319 
L 89.606865 251.949437 
L 94.054009 251.848362 
L 98.891984 250.941703 
L 104.077415 249.243904 
L 109.563812 246.782008 
L 115.301988 243.595233 
L 121.240497 239.734341 
L 127.326098 235.260833 
L 133.504231 230.245969 
L 139.719506 224.769633 
L 145.916201 218.919058 
L 152.038759 212.787441 
L 158.032289 206.472452 
L 163.843057 200.074686 
L 169.418967 193.696054 
L 174.710027 187.438164 
L 184.250834 175.679831 
L 192.124094 165.54591 
L 201.810858 152.579932 
L 203.277757 150.570739 
L 202.3963 151.779467 
L 202.3963 151.779467 
L 193.797377 163.344494 
L 186.387591 172.966836 
L 177.233804 184.385767 
L 172.103133 190.545722 
L 166.663549 196.876602 
L 160.963819 203.277559 
L 155.055044 209.64663 
L 148.990199 215.882362 
L 142.823658 221.885424 
L 136.610706 227.56019 
L 130.407046 232.816266 
L 124.268296 237.569926 
L 118.249492 241.745448 
L 112.404595 245.27632 
L 106.786009 248.106296 
L 101.444105 250.190297 
L 96.426776 251.495127 
L 91.779005 252 
L 87.542461 251.696875 
L 83.755127 250.590579 
L 80.450957 248.698736 
L 77.659575 246.051481 
L 75.406007 242.690982 
L 73.710457 238.670771 
L 72.588127 234.054887 
L 72.049078 228.916856 
L 72.098143 223.338525 
L 72.734883 217.408751 
L 73.953589 211.221993 
L 75.743335 204.8768 
L 78.088074 198.474248 
L 80.966786 192.116323 
L 84.353661 185.904304 
L 88.218334 179.937143 
L 92.526158 174.309893 
L 97.23851 169.112192 
L 102.313142 164.426836 
L 107.704558 160.328458 
L 113.364421 156.882344 
L 119.241989 154.143387 
L 125.284567 152.155217 
L 131.437979 150.949504 
L 137.647059 150.545455 
L 137.647059 150.545455 
" style="fill:none;stroke:#0000ff;stroke-linecap:square;"/>
   </g>
   <g id="patch_13">
    <path d="M 203.294118 252 
L 203.294118 150.545455 
" style="fill:none;stroke:#000000;stroke-linecap:square;stroke-linejoin:miter;"/>
   </g>
   <g id="patch_14">
    <path d="M 72 252 
L 72 150.545455 
" style="fill:none;stroke:#000000;stroke-linecap:square;stroke-linejoin:miter;"/>
   </g>
   <g id="patch_15">
    <path d="M 72 252 
L 203.294118 252 
" style="fill:none;stroke:#000000;stroke-linecap:square;stroke-linejoin:miter;"/>
   </g>
   <g id="patch_16">
    <path d="M 72 150.545455 
L 203.294118 150.545455 
" style="fill:none;stroke:#000000;stroke-linecap:square;stroke-linejoin:miter;"/>
   </g>
   <g id="matplotlib.axis_5"/>
   <g id="matplotlib.axis_6"/>
   <g id="text_3">
    <!-- subplot(2,3,4) -->
    <defs>
     <path d="M 37.796875 64.3125 
L 12.890625 25.390625 
L 37.796875 25.390625 
z
M 35.203125 72.90625 
L 47.609375 72.90625 
L 47.609375 25.390625 
L 58.015625 25.390625 
L 58.015625 17.1875 
L 47.609375 17.1875 
L 47.609375 0 
L 37.796875 0 
L 37.796875 17.1875 
L 4.890625 17.1875 
L 4.890625 26.703125 
z
" id="BitstreamVeraSans-Roman-34"/>
    </defs>
    <g transform="translate(95.4623713235 145.545454545)scale(0.12 -0.12)">
     <use xlink:href="#BitstreamVeraSans-Roman-73"/>
     <use x="52.099609375" xlink:href="#BitstreamVeraSans-Roman-75"/>
     <use x="115.478515625" xlink:href="#BitstreamVeraSans-Roman-62"/>
     <use x="178.955078125" xlink:href="#BitstreamVeraSans-Roman-70"/>
     <use x="242.431640625" xlink:href="#BitstreamVeraSans-Roman-6c"/>
     <use x="270.21484375" xlink:href="#BitstreamVeraSans-Roman-6f"/>
     <use x="331.396484375" xlink:href="#BitstreamVeraSans-Roman-74"/>
     <use x="370.60546875" xlink:href="#BitstreamVeraSans-Roman-28"/>
     <use x="409.619140625" xlink:href="#BitstreamVeraSans-Roman-32"/>
     <use x="473.2421875" xlink:href="#BitstreamVeraSans-Roman-2c"/>
     <use x="505.029296875" xlink:href="#BitstreamVeraSans-Roman-33"/>
     <use x="568.65234375" xlink:href="#BitstreamVeraSans-Roman-2c"/>
     <use x="600.439453125" xlink:href="#BitstreamVeraSans-Roman-34"/>
     <use x="664.0625" xlink:href="#BitstreamVeraSans-Roman-29"/>
    </g>
   </g>
  </g>
  <g id="axes_4">
   <g id="patch_17">
    <path d="M 229.552941 252 
L 360.847059 252 
L 360.847059 150.545455 
L 229.552941 150.545455 
z
" style="fill:#ffffff;"/>
   </g>
   <g id="line2d_4">
    <path clip-path="url(#pe6cfb2d87e)" d="M 295.2 150.545455 
L 301.40908 151.17631 
L 307.562492 153.053187 
L 313.60507 156.129406 
L 319.482638 160.328458 
L 325.142501 165.54591 
L 330.533917 171.651998 
L 335.608549 178.494859 
L 340.320901 185.904304 
L 344.628725 193.696054 
L 348.493398 201.676322 
L 351.880273 209.64663 
L 354.758984 217.408751 
L 357.103724 224.769633 
L 358.893469 231.546204 
L 360.112175 237.569926 
L 360.748915 242.690982 
L 360.797981 246.782008 
L 360.258932 249.741256 
L 359.136602 251.495127 
L 357.441052 252 
L 355.187484 251.243319 
L 352.396102 249.243904 
L 349.091932 246.051481 
L 345.304598 241.745448 
L 341.068054 236.432902 
L 336.420283 230.245969 
L 314.597567 200.074686 
L 308.578763 192.116323 
L 302.440013 184.385767 
L 296.236353 177.075283 
L 290.023401 170.366689 
L 283.85686 164.426836 
L 277.792015 159.403451 
L 271.88324 155.421471 
L 266.18351 152.579932 
L 260.743926 150.949504 
L 255.613255 150.570739 
L 250.837497 151.453057 
L 246.459467 153.574512 
L 242.518418 156.882344 
L 239.049682 161.294283 
L 236.084358 166.7006 
L 233.649032 172.966836 
L 231.765537 179.937143 
L 230.450759 187.438164 
L 229.716486 195.283341 
L 229.569302 203.277559 
L 230.010525 211.221993 
L 231.0362 218.919058 
L 232.637132 226.177322 
L 234.798967 232.816266 
L 237.502323 238.670771 
L 240.722965 243.595233 
L 244.432016 247.467174 
L 248.596225 250.190297 
L 253.178256 251.696875 
L 258.137031 251.949437 
L 263.428092 250.941703 
L 269.004001 248.698736 
L 274.814769 245.27632 
L 280.8083 240.759574 
L 286.930858 235.260833 
L 293.127553 228.916856 
L 299.342828 221.885424 
L 305.520961 214.341413 
L 311.606562 206.472452 
L 317.545071 198.474248 
L 338.79305 169.112192 
L 343.240194 163.344494 
L 347.256636 158.520183 
L 350.806369 154.759245 
L 353.857566 152.155217 
L 356.382873 150.772865 
L 358.359648 150.646568 
L 359.77017 151.779467 
L 360.601792 154.143387 
L 360.847059 157.679535 
L 360.503771 162.299962 
L 359.575007 167.889756 
L 358.069092 174.309893 
L 355.999529 181.400698 
L 353.384872 188.985818 
L 350.248562 196.876602 
L 346.618717 204.8768 
L 342.527882 212.787441 
L 338.012731 220.411778 
L 333.113746 227.56019 
L 327.874848 234.054887 
L 322.343005 239.734341 
L 316.567813 244.457298 
L 310.60105 248.106296 
L 304.49621 250.590579 
L 298.308025 251.848362 
L 292.091975 251.848362 
L 285.90379 250.590579 
L 279.79895 248.106296 
L 273.832187 244.457298 
L 268.056995 239.734341 
L 262.525152 234.054887 
L 257.286254 227.56019 
L 252.387269 220.411778 
L 247.872118 212.787441 
L 243.781283 204.8768 
L 240.151438 196.876602 
L 237.015128 188.985818 
L 234.400471 181.400698 
L 232.330908 174.309893 
L 230.824993 167.889756 
L 229.896229 162.299962 
L 229.552941 157.679535 
L 229.798208 154.143387 
L 230.62983 151.779467 
L 232.040352 150.646568 
L 234.017127 150.772865 
L 236.542434 152.155217 
L 239.593631 154.759245 
L 243.143364 158.520183 
L 247.159806 163.344494 
L 251.60695 169.112192 
L 261.630356 182.884066 
L 272.854929 198.474248 
L 278.793438 206.472452 
L 284.879039 214.341413 
L 291.057172 221.885424 
L 297.272447 228.916856 
L 303.469142 235.260833 
L 309.5917 240.759574 
L 315.585231 245.27632 
L 321.395999 248.698736 
L 326.971908 250.941703 
L 332.262969 251.949437 
L 337.221744 251.696875 
L 341.803775 250.190297 
L 345.967984 247.467174 
L 349.677035 243.595233 
L 352.897677 238.670771 
L 355.601033 232.816266 
L 357.762868 226.177322 
L 359.3638 218.919058 
L 360.389475 211.221993 
L 360.830698 203.277559 
L 360.683514 195.283341 
L 359.949241 187.438164 
L 358.634463 179.937143 
L 356.750968 172.966836 
L 354.315642 166.7006 
L 351.350318 161.294283 
L 347.881582 156.882344 
L 343.940533 153.574512 
L 339.562503 151.453057 
L 334.786745 150.570739 
L 329.656074 150.949504 
L 324.21649 152.579932 
L 318.51676 155.421471 
L 312.607985 159.403451 
L 306.54314 164.426836 
L 300.376599 170.366689 
L 294.163647 177.075283 
L 287.959987 184.385767 
L 281.821237 192.116323 
L 275.802433 200.074686 
L 264.33895 215.882362 
L 253.979717 230.245969 
L 249.331946 236.432902 
L 245.095402 241.745448 
L 241.308068 246.051481 
L 238.003898 249.243904 
L 235.212516 251.243319 
L 232.958948 252 
L 231.263398 251.495127 
L 230.141068 249.741256 
L 229.602019 246.782008 
L 229.651085 242.690982 
L 230.287825 237.569926 
L 231.506531 231.546204 
L 233.296276 224.769633 
L 235.641016 217.408751 
L 238.519727 209.64663 
L 241.906602 201.676322 
L 245.771275 193.696054 
L 250.079099 185.904304 
L 254.791451 178.494859 
L 259.866083 171.651998 
L 265.257499 165.54591 
L 270.917362 160.328458 
L 276.79493 156.129406 
L 282.837508 153.053187 
L 288.99092 151.17631 
L 295.2 150.545455 
L 295.2 150.545455 
" style="fill:none;stroke:#0000ff;stroke-linecap:square;"/>
   </g>
   <g id="patch_18">
    <path d="M 360.847059 252 
L 360.847059 150.545455 
" style="fill:none;stroke:#000000;stroke-linecap:square;stroke-linejoin:miter;"/>
   </g>
   <g id="patch_19">
    <path d="M 229.552941 252 
L 229.552941 150.545455 
" style="fill:none;stroke:#000000;stroke-linecap:square;stroke-linejoin:miter;"/>
   </g>
   <g id="patch_20">
    <path d="M 229.552941 252 
L 360.847059 252 
" style="fill:none;stroke:#000000;stroke-linecap:square;stroke-linejoin:miter;"/>
   </g>
   <g id="patch_21">
    <path d="M 229.552941 150.545455 
L 360.847059 150.545455 
" style="fill:none;stroke:#000000;stroke-linecap:square;stroke-linejoin:miter;"/>
   </g>
   <g id="matplotlib.axis_7"/>
   <g id="matplotlib.axis_8"/>
   <g id="text_4">
    <!-- subplot(2,3,5) -->
    <defs>
     <path d="M 10.796875 72.90625 
L 49.515625 72.90625 
L 49.515625 64.59375 
L 19.828125 64.59375 
L 19.828125 46.734375 
Q 21.96875 47.46875 24.109375 47.828125 
Q 26.265625 48.1875 28.421875 48.1875 
Q 40.625 48.1875 47.75 41.5 
Q 54.890625 34.8125 54.890625 23.390625 
Q 54.890625 11.625 47.5625 5.09375 
Q 40.234375 -1.421875 26.90625 -1.421875 
Q 22.3125 -1.421875 17.546875 -0.640625 
Q 12.796875 0.140625 7.71875 1.703125 
L 7.71875 11.625 
Q 12.109375 9.234375 16.796875 8.0625 
Q 21.484375 6.890625 26.703125 6.890625 
Q 35.15625 6.890625 40.078125 11.328125 
Q 45.015625 15.765625 45.015625 23.390625 
Q 45.015625 31 40.078125 35.4375 
Q 35.15625 39.890625 26.703125 39.890625 
Q 22.75 39.890625 18.8125 39.015625 
Q 14.890625 38.140625 10.796875 36.28125 
z
" id="BitstreamVeraSans-Roman-35"/>
    </defs>
    <g transform="translate(253.0153125 145.545454545)scale(0.12 -0.12)">
     <use xlink:href="#BitstreamVeraSans-Roman-73"/>
     <use x="52.099609375" xlink:href="#BitstreamVeraSans-Roman-75"/>
     <use x="115.478515625" xlink:href="#BitstreamVeraSans-Roman-62"/>
     <use x="178.955078125" xlink:href="#BitstreamVeraSans-Roman-70"/>
     <use x="242.431640625" xlink:href="#BitstreamVeraSans-Roman-6c"/>
     <use x="270.21484375" xlink:href="#BitstreamVeraSans-Roman-6f"/>
     <use x="331.396484375" xlink:href="#BitstreamVeraSans-Roman-74"/>
     <use x="370.60546875" xlink:href="#BitstreamVeraSans-Roman-28"/>
     <use x="409.619140625" xlink:href="#BitstreamVeraSans-Roman-32"/>
     <use x="473.2421875" xlink:href="#BitstreamVeraSans-Roman-2c"/>
     <use x="505.029296875" xlink:href="#BitstreamVeraSans-Roman-33"/>
     <use x="568.65234375" xlink:href="#BitstreamVeraSans-Roman-2c"/>
     <use x="600.439453125" xlink:href="#BitstreamVeraSans-Roman-35"/>
     <use x="664.0625" xlink:href="#BitstreamVeraSans-Roman-29"/>
    </g>
   </g>
  </g>
  <g id="axes_5">
   <g id="patch_22">
    <path d="M 387.105882 252 
L 518.4 252 
L 518.4 28.8 
L 387.105882 28.8 
z
" style="fill:#ffffff;"/>
   </g>
   <g id="line2d_5">
    <path clip-path="url(#p29b6b24008)" d="M 452.752941 252 
L 473.138172 250.878392 
L 491.508016 249.756784 
L 506.046339 248.635176 
L 515.315809 247.513568 
L 518.4 246.39196 
L 514.993993 245.270352 
L 505.434523 244.148744 
L 490.666687 243.027136 
L 472.150508 241.905528 
L 431.385128 239.662312 
L 413.166196 238.540704 
L 398.861009 237.419095 
L 389.883849 236.297487 
L 387.122243 235.175879 
L 390.849217 234.054271 
L 400.696305 232.932663 
L 415.689973 231.811055 
L 454.825388 229.567839 
L 475.098012 228.446231 
L 493.16149 227.324623 
L 507.229977 226.203015 
L 515.912589 225.081407 
L 518.350922 223.959799 
L 514.303909 222.838191 
L 504.171659 221.716583 
L 488.955895 220.594975 
L 449.644916 218.351759 
L 429.436181 217.230151 
L 411.532658 216.108543 
L 397.704379 214.986935 
L 389.318478 213.865327 
L 387.204026 212.743719 
L 391.570069 211.622111 
L 401.984957 210.500503 
L 417.419024 209.378894 
L 456.895769 207.135678 
L 477.035579 206.01407 
L 494.774685 204.892462 
L 508.35931 203.770854 
L 516.446411 202.649246 
L 518.236455 201.527638 
L 513.55247 200.40603 
L 502.857539 199.284422 
L 487.209015 198.162814 
L 447.576342 195.919598 
L 427.510478 194.79799 
L 409.94021 193.676382 
L 396.602623 192.554774 
L 388.816339 191.433166 
L 387.351149 190.311558 
L 392.351908 189.18995 
L 403.324217 188.068342 
L 419.183297 186.946734 
L 458.962021 184.703518 
L 478.94894 183.58191 
L 496.345991 182.460302 
L 509.433214 181.338693 
L 516.916741 180.217085 
L 518.056712 179.095477 
L 512.740425 177.973869 
L 501.493474 176.852261 
L 485.427789 175.730653 
L 445.512928 173.487437 
L 425.609936 172.365829 
L 408.390438 171.244221 
L 395.556839 170.122613 
L 388.377935 169.001005 
L 387.563466 167.879397 
L 393.193957 166.757789 
L 404.712748 165.636181 
L 420.981033 164.514573 
L 497.873842 160.028141 
L 510.450618 158.906533 
L 517.323111 157.784925 
L 517.811873 156.663317 
L 511.868583 155.541709 
L 500.080823 154.420101 
L 483.613991 153.298492 
L 406.884887 148.81206 
L 394.568069 147.690452 
L 388.0037 146.568844 
L 387.840766 145.447236 
L 394.095375 144.325628 
L 406.149166 143.20402 
L 422.81044 142.082412 
L 499.356716 137.59598 
L 511.410507 136.474372 
L 517.665117 135.352764 
L 517.502182 134.231156 
L 510.937813 133.109548 
L 498.620995 131.98794 
L 481.769431 130.866332 
L 421.891891 127.501508 
L 405.425059 126.379899 
L 393.6373 125.258291 
L 387.694009 124.136683 
L 388.182771 123.015075 
L 395.055265 121.893467 
L 407.63204 120.771859 
L 424.669694 119.650251 
L 484.524849 116.285427 
L 500.793135 115.163819 
L 512.311926 114.042211 
L 517.942416 112.920603 
L 517.127948 111.798995 
L 509.949043 110.677387 
L 497.115445 109.555779 
L 479.895946 108.434171 
L 420.078093 105.069347 
L 404.012409 103.947739 
L 392.765457 102.826131 
L 387.44917 101.704523 
L 388.589142 100.582915 
L 396.072668 99.461307 
L 409.159892 98.339698 
L 426.556943 97.21809 
L 486.322585 93.853266 
L 502.181666 92.731658 
L 513.153974 91.61005 
L 518.154733 90.488442 
L 516.689543 89.366834 
L 508.903259 88.245226 
L 495.565673 87.123618 
L 477.995405 86.00201 
L 418.296867 82.637186 
L 402.648343 81.515578 
L 391.953412 80.39397 
L 387.269427 79.272362 
L 389.059472 78.150754 
L 397.146572 77.029146 
L 410.731198 75.907538 
L 428.470304 74.78593 
L 488.086858 71.421106 
L 503.520925 70.299497 
L 513.935814 69.177889 
L 518.301857 68.056281 
L 516.187405 66.934673 
L 507.801503 65.813065 
L 493.973224 64.691457 
L 476.069701 63.569849 
L 416.549987 60.205025 
L 401.334224 59.083417 
L 391.201973 57.961809 
L 387.15496 56.840201 
L 389.593293 55.718593 
L 398.275906 54.596985 
L 412.344392 53.475377 
L 430.40787 52.353769 
L 489.81591 48.988945 
L 504.809578 47.867337 
L 514.656665 46.745729 
L 518.383639 45.624121 
L 515.622033 44.502513 
L 506.644873 43.380905 
L 492.339686 42.259296 
L 474.120755 41.137688 
L 414.839195 37.772864 
L 400.071359 36.651256 
L 390.511889 35.529648 
L 387.105882 34.40804 
L 390.190073 33.286432 
L 399.459543 32.164824 
L 413.997866 31.043216 
L 432.367711 29.921608 
L 452.752941 28.8 
L 452.752941 28.8 
" style="fill:none;stroke:#0000ff;stroke-linecap:square;"/>
   </g>
   <g id="patch_23">
    <path d="M 518.4 252 
L 518.4 28.8 
" style="fill:none;stroke:#000000;stroke-linecap:square;stroke-linejoin:miter;"/>
   </g>
   <g id="patch_24">
    <path d="M 387.105882 252 
L 387.105882 28.8 
" style="fill:none;stroke:#000000;stroke-linecap:square;stroke-linejoin:miter;"/>
   </g>
   <g id="patch_25">
    <path d="M 387.105882 252 
L 518.4 252 
" style="fill:none;stroke:#000000;stroke-linecap:square;stroke-linejoin:miter;"/>
   </g>
   <g id="patch_26">
    <path d="M 387.105882 28.8 
L 518.4 28.8 
" style="fill:none;stroke:#000000;stroke-linecap:square;stroke-linejoin:miter;"/>
   </g>
   <g id="matplotlib.axis_9"/>
   <g id="matplotlib.axis_10"/>
   <g id="text_5">
    <!-- subplot(1,3,3) -->
    <g transform="translate(410.568253676 23.8)scale(0.12 -0.12)">
     <use xlink:href="#BitstreamVeraSans-Roman-73"/>
     <use x="52.099609375" xlink:href="#BitstreamVeraSans-Roman-75"/>
     <use x="115.478515625" xlink:href="#BitstreamVeraSans-Roman-62"/>
     <use x="178.955078125" xlink:href="#BitstreamVeraSans-Roman-70"/>
     <use x="242.431640625" xlink:href="#BitstreamVeraSans-Roman-6c"/>
     <use x="270.21484375" xlink:href="#BitstreamVeraSans-Roman-6f"/>
     <use x="331.396484375" xlink:href="#BitstreamVeraSans-Roman-74"/>
     <use x="370.60546875" xlink:href="#BitstreamVeraSans-Roman-28"/>
     <use x="409.619140625" xlink:href="#BitstreamVeraSans-Roman-31"/>
     <use x="473.2421875" xlink:href="#BitstreamVeraSans-Roman-2c"/>
     <use x="505.029296875" xlink:href="#BitstreamVeraSans-Roman-33"/>
     <use x="568.65234375" xlink:href="#BitstreamVeraSans-Roman-2c"/>
     <use x="600.439453125" xlink:href="#BitstreamVeraSans-Roman-33"/>
     <use x="664.0625" xlink:href="#BitstreamVeraSans-Roman-29"/>
    </g>
   </g>
  </g>
 </g>
 <defs>
  <clipPath id="p29b6b24008">
   <rect height="223.2" width="131.294117647" x="387.105882353" y="28.8"/>
  </clipPath>
  <clipPath id="pe6cfb2d87e">
   <rect height="101.454545455" width="131.294117647" x="229.552941176" y="150.545454545"/>
  </clipPath>
  <clipPath id="p3f5bf18367">
   <rect height="101.454545455" width="131.294117647" x="72.0" y="28.8"/>
  </clipPath>
  <clipPath id="p80b31ac44f">
   <rect height="101.454545455" width="131.294117647" x="229.552941176" y="28.8"/>
  </clipPath>
  <clipPath id="p557e64692a">
   <rect height="101.454545455" width="131.294117647" x="72.0" y="150.545454545"/>
  </clipPath>
 </defs>
</svg>
