<?xml version="1.0" encoding="utf-8" standalone="no"?>
<!DOCTYPE svg PUBLIC "-//W3C//DTD SVG 1.1//EN"
  "http://www.w3.org/Graphics/SVG/1.1/DTD/svg11.dtd">
<!-- Created with matplotlib (http://matplotlib.org/) -->
<svg height="288pt" version="1.1" viewBox="0 0 576 288" width="576pt" xmlns="http://www.w3.org/2000/svg" xmlns:xlink="http://www.w3.org/1999/xlink">
 <defs>
  <style type="text/css">
*{stroke-linecap:butt;stroke-linejoin:round;stroke-miterlimit:100000;}
  </style>
 </defs>
 <g id="figure_1">
  <g id="patch_1">
   <path d="M 0 288 
L 576 288 
L 576 0 
L 0 0 
z
" style="fill:#ffffff;"/>
  </g>
  <g id="axes_1">
   <g id="patch_2">
    <path d="M 72 130.254545 
L 203.294118 130.254545 
L 203.294118 28.8 
L 72 28.8 
z
" style="fill:#ffffff;"/>
   </g>
   <g id="line2d_1">
    <path clip-path="url(#pe2c9dd0896)" d="M 137.647059 28.8 
L 141.811177 28.902156 
L 145.958527 29.208213 
L 150.07241 29.716939 
L 154.136261 30.426284 
L 158.133715 31.333394 
L 162.048677 32.434614 
L 165.865383 33.725512 
L 169.568463 35.200888 
L 173.143006 36.854803 
L 176.57462 38.680596 
L 179.849487 40.670916 
L 182.954419 42.817747 
L 185.876915 45.112447 
L 188.605206 47.545774 
L 191.128306 50.107931 
L 193.436056 52.788601 
L 195.519164 55.57699 
L 197.369241 58.461869 
L 198.978838 61.431622 
L 200.341474 64.474292 
L 201.451661 67.577626 
L 202.30493 70.729129 
L 202.897844 73.91611 
L 203.228017 77.125737 
L 203.294118 80.345085 
L 203.095881 83.561192 
L 202.634105 86.761107 
L 201.91065 89.931945 
L 200.928427 93.060939 
L 199.691393 96.135489 
L 198.204528 99.143215 
L 196.473819 102.072006 
L 194.506236 104.910068 
L 192.309702 107.645975 
L 189.89306 110.268709 
L 187.266041 112.767709 
L 184.439225 115.132913 
L 181.423993 117.354798 
L 178.232487 119.424415 
L 174.877557 121.333433 
L 171.372714 123.074163 
L 167.732069 124.639597 
L 163.970283 126.02343 
L 160.102502 127.220092 
L 156.144301 128.224763 
L 152.111618 129.033397 
L 148.020692 129.64274 
L 143.887994 130.050336 
L 139.730167 130.254545 
L 135.563951 130.254545 
L 131.406124 130.050336 
L 127.273426 129.64274 
L 123.1825 129.033397 
L 119.149817 128.224763 
L 115.191616 127.220092 
L 111.323835 126.02343 
L 107.562049 124.639597 
L 103.921404 123.074163 
L 100.41656 121.333433 
L 97.061631 119.424415 
L 93.870125 117.354798 
L 90.854893 115.132913 
L 88.028076 112.767709 
L 85.401058 110.268709 
L 82.984416 107.645975 
L 80.787881 104.910068 
L 78.820298 102.072006 
L 77.08959 99.143215 
L 75.602725 96.135489 
L 74.365691 93.060939 
L 73.383468 89.931945 
L 72.660012 86.761107 
L 72.198237 83.561192 
L 72 80.345085 
L 72.066101 77.125737 
L 72.396273 73.91611 
L 72.989188 70.729129 
L 73.842456 67.577626 
L 74.952644 64.474292 
L 76.315279 61.431622 
L 77.924876 58.461869 
L 79.774954 55.57699 
L 81.858061 52.788601 
L 84.165812 50.107931 
L 86.688912 47.545774 
L 89.417203 45.112447 
L 92.339698 42.817747 
L 95.444631 40.670916 
L 98.719497 38.680596 
L 102.151111 36.854803 
L 105.725655 35.200888 
L 109.428735 33.725512 
L 113.24544 32.434614 
L 117.160402 31.333394 
L 121.157857 30.426284 
L 125.221707 29.716939 
L 129.33559 29.208213 
L 133.482941 28.902156 
L 137.647059 28.8 
" style="fill:none;stroke:#0000ff;stroke-linecap:square;"/>
   </g>
   <g id="patch_3">
    <path d="M 203.294118 130.254545 
L 203.294118 28.8 
" style="fill:none;stroke:#000000;stroke-linecap:square;stroke-linejoin:miter;"/>
   </g>
   <g id="patch_4">
    <path d="M 72 130.254545 
L 72 28.8 
" style="fill:none;stroke:#000000;stroke-linecap:square;stroke-linejoin:miter;"/>
   </g>
   <g id="patch_5">
    <path d="M 72 130.254545 
L 203.294118 130.254545 
" style="fill:none;stroke:#000000;stroke-linecap:square;stroke-linejoin:miter;"/>
   </g>
   <g id="patch_6">
    <path d="M 72 28.8 
L 203.294118 28.8 
" style="fill:none;stroke:#000000;stroke-linecap:square;stroke-linejoin:miter;"/>
   </g>
   <g id="matplotlib.axis_1"/>
   <g id="matplotlib.axis_2"/>
   <g id="text_1">
    <!-- subplot(231) -->
    <defs>
     <path d="M 12.40625 8.296875 
L 28.515625 8.296875 
L 28.515625 63.921875 
L 10.984375 60.40625 
L 10.984375 69.390625 
L 28.421875 72.90625 
L 38.28125 72.90625 
L 38.28125 8.296875 
L 54.390625 8.296875 
L 54.390625 0 
L 12.40625 0 
z
" id="BitstreamVeraSans-Roman-31"/>
     <path d="M 40.578125 39.3125 
Q 47.65625 37.796875 51.625 33 
Q 55.609375 28.21875 55.609375 21.1875 
Q 55.609375 10.40625 48.1875 4.484375 
Q 40.765625 -1.421875 27.09375 -1.421875 
Q 22.515625 -1.421875 17.65625 -0.515625 
Q 12.796875 0.390625 7.625 2.203125 
L 7.625 11.71875 
Q 11.71875 9.328125 16.59375 8.109375 
Q 21.484375 6.890625 26.8125 6.890625 
Q 36.078125 6.890625 40.9375 10.546875 
Q 45.796875 14.203125 45.796875 21.1875 
Q 45.796875 27.640625 41.28125 31.265625 
Q 36.765625 34.90625 28.71875 34.90625 
L 20.21875 34.90625 
L 20.21875 43.015625 
L 29.109375 43.015625 
Q 36.375 43.015625 40.234375 45.921875 
Q 44.09375 48.828125 44.09375 54.296875 
Q 44.09375 59.90625 40.109375 62.90625 
Q 36.140625 65.921875 28.71875 65.921875 
Q 24.65625 65.921875 20.015625 65.03125 
Q 15.375 64.15625 9.8125 62.3125 
L 9.8125 71.09375 
Q 15.4375 72.65625 20.34375 73.4375 
Q 25.25 74.21875 29.59375 74.21875 
Q 40.828125 74.21875 47.359375 69.109375 
Q 53.90625 64.015625 53.90625 55.328125 
Q 53.90625 49.265625 50.4375 45.09375 
Q 46.96875 40.921875 40.578125 39.3125 
" id="BitstreamVeraSans-Roman-33"/>
     <path d="M 8.5 21.578125 
L 8.5 54.6875 
L 17.484375 54.6875 
L 17.484375 21.921875 
Q 17.484375 14.15625 20.5 10.265625 
Q 23.53125 6.390625 29.59375 6.390625 
Q 36.859375 6.390625 41.078125 11.03125 
Q 45.3125 15.671875 45.3125 23.6875 
L 45.3125 54.6875 
L 54.296875 54.6875 
L 54.296875 0 
L 45.3125 0 
L 45.3125 8.40625 
Q 42.046875 3.421875 37.71875 1 
Q 33.40625 -1.421875 27.6875 -1.421875 
Q 18.265625 -1.421875 13.375 4.4375 
Q 8.5 10.296875 8.5 21.578125 
" id="BitstreamVeraSans-Roman-75"/>
     <path d="M 31 75.875 
Q 24.46875 64.65625 21.28125 53.65625 
Q 18.109375 42.671875 18.109375 31.390625 
Q 18.109375 20.125 21.3125 9.0625 
Q 24.515625 -2 31 -13.1875 
L 23.1875 -13.1875 
Q 15.875 -1.703125 12.234375 9.375 
Q 8.59375 20.453125 8.59375 31.390625 
Q 8.59375 42.28125 12.203125 53.3125 
Q 15.828125 64.359375 23.1875 75.875 
z
" id="BitstreamVeraSans-Roman-28"/>
     <path d="M 30.609375 48.390625 
Q 23.390625 48.390625 19.1875 42.75 
Q 14.984375 37.109375 14.984375 27.296875 
Q 14.984375 17.484375 19.15625 11.84375 
Q 23.34375 6.203125 30.609375 6.203125 
Q 37.796875 6.203125 41.984375 11.859375 
Q 46.1875 17.53125 46.1875 27.296875 
Q 46.1875 37.015625 41.984375 42.703125 
Q 37.796875 48.390625 30.609375 48.390625 
M 30.609375 56 
Q 42.328125 56 49.015625 48.375 
Q 55.71875 40.765625 55.71875 27.296875 
Q 55.71875 13.875 49.015625 6.21875 
Q 42.328125 -1.421875 30.609375 -1.421875 
Q 18.84375 -1.421875 12.171875 6.21875 
Q 5.515625 13.875 5.515625 27.296875 
Q 5.515625 40.765625 12.171875 48.375 
Q 18.84375 56 30.609375 56 
" id="BitstreamVeraSans-Roman-6f"/>
     <path d="M 44.28125 53.078125 
L 44.28125 44.578125 
Q 40.484375 46.53125 36.375 47.5 
Q 32.28125 48.484375 27.875 48.484375 
Q 21.1875 48.484375 17.84375 46.4375 
Q 14.5 44.390625 14.5 40.28125 
Q 14.5 37.15625 16.890625 35.375 
Q 19.28125 33.59375 26.515625 31.984375 
L 29.59375 31.296875 
Q 39.15625 29.25 43.1875 25.515625 
Q 47.21875 21.78125 47.21875 15.09375 
Q 47.21875 7.46875 41.1875 3.015625 
Q 35.15625 -1.421875 24.609375 -1.421875 
Q 20.21875 -1.421875 15.453125 -0.5625 
Q 10.6875 0.296875 5.421875 2 
L 5.421875 11.28125 
Q 10.40625 8.6875 15.234375 7.390625 
Q 20.0625 6.109375 24.8125 6.109375 
Q 31.15625 6.109375 34.5625 8.28125 
Q 37.984375 10.453125 37.984375 14.40625 
Q 37.984375 18.0625 35.515625 20.015625 
Q 33.0625 21.96875 24.703125 23.78125 
L 21.578125 24.515625 
Q 13.234375 26.265625 9.515625 29.90625 
Q 5.8125 33.546875 5.8125 39.890625 
Q 5.8125 47.609375 11.28125 51.796875 
Q 16.75 56 26.8125 56 
Q 31.78125 56 36.171875 55.265625 
Q 40.578125 54.546875 44.28125 53.078125 
" id="BitstreamVeraSans-Roman-73"/>
     <path d="M 9.421875 75.984375 
L 18.40625 75.984375 
L 18.40625 0 
L 9.421875 0 
z
" id="BitstreamVeraSans-Roman-6c"/>
     <path d="M 8.015625 75.875 
L 15.828125 75.875 
Q 23.140625 64.359375 26.78125 53.3125 
Q 30.421875 42.28125 30.421875 31.390625 
Q 30.421875 20.453125 26.78125 9.375 
Q 23.140625 -1.703125 15.828125 -13.1875 
L 8.015625 -13.1875 
Q 14.5 -2 17.703125 9.0625 
Q 20.90625 20.125 20.90625 31.390625 
Q 20.90625 42.671875 17.703125 53.65625 
Q 14.5 64.65625 8.015625 75.875 
" id="BitstreamVeraSans-Roman-29"/>
     <path d="M 19.1875 8.296875 
L 53.609375 8.296875 
L 53.609375 0 
L 7.328125 0 
L 7.328125 8.296875 
Q 12.9375 14.109375 22.625 23.890625 
Q 32.328125 33.6875 34.8125 36.53125 
Q 39.546875 41.84375 41.421875 45.53125 
Q 43.3125 49.21875 43.3125 52.78125 
Q 43.3125 58.59375 39.234375 62.25 
Q 35.15625 65.921875 28.609375 65.921875 
Q 23.96875 65.921875 18.8125 64.3125 
Q 13.671875 62.703125 7.8125 59.421875 
L 7.8125 69.390625 
Q 13.765625 71.78125 18.9375 73 
Q 24.125 74.21875 28.421875 74.21875 
Q 39.75 74.21875 46.484375 68.546875 
Q 53.21875 62.890625 53.21875 53.421875 
Q 53.21875 48.921875 51.53125 44.890625 
Q 49.859375 40.875 45.40625 35.40625 
Q 44.1875 33.984375 37.640625 27.21875 
Q 31.109375 20.453125 19.1875 8.296875 
" id="BitstreamVeraSans-Roman-32"/>
     <path d="M 48.6875 27.296875 
Q 48.6875 37.203125 44.609375 42.84375 
Q 40.53125 48.484375 33.40625 48.484375 
Q 26.265625 48.484375 22.1875 42.84375 
Q 18.109375 37.203125 18.109375 27.296875 
Q 18.109375 17.390625 22.1875 11.75 
Q 26.265625 6.109375 33.40625 6.109375 
Q 40.53125 6.109375 44.609375 11.75 
Q 48.6875 17.390625 48.6875 27.296875 
M 18.109375 46.390625 
Q 20.953125 51.265625 25.265625 53.625 
Q 29.59375 56 35.59375 56 
Q 45.5625 56 51.78125 48.09375 
Q 58.015625 40.1875 58.015625 27.296875 
Q 58.015625 14.40625 51.78125 6.484375 
Q 45.5625 -1.421875 35.59375 -1.421875 
Q 29.59375 -1.421875 25.265625 0.953125 
Q 20.953125 3.328125 18.109375 8.203125 
L 18.109375 0 
L 9.078125 0 
L 9.078125 75.984375 
L 18.109375 75.984375 
z
" id="BitstreamVeraSans-Roman-62"/>
     <path d="M 18.3125 70.21875 
L 18.3125 54.6875 
L 36.8125 54.6875 
L 36.8125 47.703125 
L 18.3125 47.703125 
L 18.3125 18.015625 
Q 18.3125 11.328125 20.140625 9.421875 
Q 21.96875 7.515625 27.59375 7.515625 
L 36.8125 7.515625 
L 36.8125 0 
L 27.59375 0 
Q 17.1875 0 13.234375 3.875 
Q 9.28125 7.765625 9.28125 18.015625 
L 9.28125 47.703125 
L 2.6875 47.703125 
L 2.6875 54.6875 
L 9.28125 54.6875 
L 9.28125 70.21875 
z
" id="BitstreamVeraSans-Roman-74"/>
     <path d="M 18.109375 8.203125 
L 18.109375 -20.796875 
L 9.078125 -20.796875 
L 9.078125 54.6875 
L 18.109375 54.6875 
L 18.109375 46.390625 
Q 20.953125 51.265625 25.265625 53.625 
Q 29.59375 56 35.59375 56 
Q 45.5625 56 51.78125 48.09375 
Q 58.015625 40.1875 58.015625 27.296875 
Q 58.015625 14.40625 51.78125 6.484375 
Q 45.5625 -1.421875 35.59375 -1.421875 
Q 29.59375 -1.421875 25.265625 0.953125 
Q 20.953125 3.328125 18.109375 8.203125 
M 48.6875 27.296875 
Q 48.6875 37.203125 44.609375 42.84375 
Q 40.53125 48.484375 33.40625 48.484375 
Q 26.265625 48.484375 22.1875 42.84375 
Q 18.109375 37.203125 18.109375 27.296875 
Q 18.109375 17.390625 22.1875 11.75 
Q 26.265625 6.109375 33.40625 6.109375 
Q 40.53125 6.109375 44.609375 11.75 
Q 48.6875 17.390625 48.6875 27.296875 
" id="BitstreamVeraSans-Roman-70"/>
    </defs>
    <g transform="translate(99.2761213235 23.8)scale(0.12 -0.12)">
     <use xlink:href="#BitstreamVeraSans-Roman-73"/>
     <use x="52.099609375" xlink:href="#BitstreamVeraSans-Roman-75"/>
     <use x="115.478515625" xlink:href="#BitstreamVeraSans-Roman-62"/>
     <use x="178.955078125" xlink:href="#BitstreamVeraSans-Roman-70"/>
     <use x="242.431640625" xlink:href="#BitstreamVeraSans-Roman-6c"/>
     <use x="270.21484375" xlink:href="#BitstreamVeraSans-Roman-6f"/>
     <use x="331.396484375" xlink:href="#BitstreamVeraSans-Roman-74"/>
     <use x="370.60546875" xlink:href="#BitstreamVeraSans-Roman-28"/>
     <use x="409.619140625" xlink:href="#BitstreamVeraSans-Roman-32"/>
     <use x="473.2421875" xlink:href="#BitstreamVeraSans-Roman-33"/>
     <use x="536.865234375" xlink:href="#BitstreamVeraSans-Roman-31"/>
     <use x="600.48828125" xlink:href="#BitstreamVeraSans-Roman-29"/>
    </g>
   </g>
  </g>
  <g id="axes_2">
   <g id="patch_7">
    <path d="M 387.105882 130.254545 
L 518.4 130.254545 
L 518.4 28.8 
L 387.105882 28.8 
z
" style="fill:#ffffff;"/>
   </g>
   <g id="line2d_2">
    <path clip-path="url(#pcd1ffb02c6)" d="M 452.752941 28.8 
L 456.917059 29.718788 
L 461.06441 32.441945 
L 465.178293 36.871049 
L 469.242143 42.84602 
L 473.239598 50.150907 
L 477.15456 58.521693 
L 480.971265 67.655836 
L 484.674345 77.223204 
L 488.248889 86.878007 
L 491.680503 96.271296 
L 494.955369 105.063573 
L 498.060302 112.937061 
L 500.982797 119.607193 
L 503.711088 124.832893 
L 506.234188 128.42529 
L 508.541939 130.254545 
L 510.625046 130.254545 
L 512.475124 128.42529 
L 514.084721 124.832893 
L 515.447356 119.607193 
L 516.557544 112.937061 
L 517.410812 105.063573 
L 518.003727 96.271296 
L 518.333899 86.878007 
L 518.4 77.223204 
L 518.201763 67.655836 
L 517.739988 58.521693 
L 517.016532 50.150907 
L 516.034309 42.84602 
L 514.797275 36.871049 
L 513.31041 32.441945 
L 511.579702 29.718788 
L 509.612119 28.8 
L 507.415584 29.718788 
L 504.998942 32.441945 
L 502.371924 36.871049 
L 499.545107 42.84602 
L 496.529875 50.150907 
L 493.338369 58.521693 
L 489.98344 67.655836 
L 486.478596 77.223204 
L 482.837951 86.878007 
L 479.076165 96.271296 
L 475.208384 105.063573 
L 471.250183 112.937061 
L 467.2175 119.607193 
L 463.126574 124.832893 
L 458.993876 128.42529 
L 454.836049 130.254545 
L 450.669833 130.254545 
L 446.512006 128.42529 
L 442.379308 124.832893 
L 438.288382 119.607193 
L 434.255699 112.937061 
L 430.297498 105.063573 
L 426.429717 96.271296 
L 422.667931 86.878007 
L 419.027286 77.223204 
L 415.522443 67.655836 
L 412.167513 58.521693 
L 408.976007 50.150907 
L 405.960775 42.84602 
L 403.133959 36.871049 
L 400.50694 32.441945 
L 398.090298 29.718788 
L 395.893764 28.8 
L 393.926181 29.718788 
L 392.195472 32.441945 
L 390.708607 36.871049 
L 389.471573 42.84602 
L 388.48935 50.150907 
L 387.765895 58.521693 
L 387.304119 67.655836 
L 387.105882 77.223204 
L 387.171983 86.878007 
L 387.502156 96.271296 
L 388.09507 105.063573 
L 388.948339 112.937061 
L 390.058526 119.607193 
L 391.421162 124.832893 
L 393.030759 128.42529 
L 394.880836 130.254545 
L 396.963944 130.254545 
L 399.271694 128.42529 
L 401.794794 124.832893 
L 404.523085 119.607193 
L 407.445581 112.937061 
L 410.550513 105.063573 
L 413.82538 96.271296 
L 417.256994 86.878007 
L 420.831537 77.223204 
L 424.534617 67.655836 
L 428.351323 58.521693 
L 432.266285 50.150907 
L 436.263739 42.84602 
L 440.32759 36.871049 
L 444.441473 32.441945 
L 448.588823 29.718788 
L 452.752941 28.8 
" style="fill:none;stroke:#0000ff;stroke-linecap:square;"/>
   </g>
   <g id="patch_8">
    <path d="M 518.4 130.254545 
L 518.4 28.8 
" style="fill:none;stroke:#000000;stroke-linecap:square;stroke-linejoin:miter;"/>
   </g>
   <g id="patch_9">
    <path d="M 387.105882 130.254545 
L 387.105882 28.8 
" style="fill:none;stroke:#000000;stroke-linecap:square;stroke-linejoin:miter;"/>
   </g>
   <g id="patch_10">
    <path d="M 387.105882 130.254545 
L 518.4 130.254545 
" style="fill:none;stroke:#000000;stroke-linecap:square;stroke-linejoin:miter;"/>
   </g>
   <g id="patch_11">
    <path d="M 387.105882 28.8 
L 518.4 28.8 
" style="fill:none;stroke:#000000;stroke-linecap:square;stroke-linejoin:miter;"/>
   </g>
   <g id="matplotlib.axis_3"/>
   <g id="matplotlib.axis_4"/>
   <g id="text_2">
    <!-- subplot(233) -->
    <g transform="translate(414.382003676 23.8)scale(0.12 -0.12)">
     <use xlink:href="#BitstreamVeraSans-Roman-73"/>
     <use x="52.099609375" xlink:href="#BitstreamVeraSans-Roman-75"/>
     <use x="115.478515625" xlink:href="#BitstreamVeraSans-Roman-62"/>
     <use x="178.955078125" xlink:href="#BitstreamVeraSans-Roman-70"/>
     <use x="242.431640625" xlink:href="#BitstreamVeraSans-Roman-6c"/>
     <use x="270.21484375" xlink:href="#BitstreamVeraSans-Roman-6f"/>
     <use x="331.396484375" xlink:href="#BitstreamVeraSans-Roman-74"/>
     <use x="370.60546875" xlink:href="#BitstreamVeraSans-Roman-28"/>
     <use x="409.619140625" xlink:href="#BitstreamVeraSans-Roman-32"/>
     <use x="473.2421875" xlink:href="#BitstreamVeraSans-Roman-33"/>
     <use x="536.865234375" xlink:href="#BitstreamVeraSans-Roman-33"/>
     <use x="600.48828125" xlink:href="#BitstreamVeraSans-Roman-29"/>
    </g>
   </g>
  </g>
  <g id="axes_3">
   <g id="patch_12">
    <path d="M 229.552941 252 
L 360.847059 252 
L 360.847059 150.545455 
L 229.552941 150.545455 
z
" style="fill:#ffffff;"/>
   </g>
   <g id="line2d_3">
    <path clip-path="url(#pdc88945bc4)" d="M 295.2 150.545455 
L 299.364118 153.078848 
L 303.511468 160.426051 
L 307.625352 171.853386 
L 311.689202 186.219747 
L 315.686657 202.09054 
L 319.601619 217.880943 
L 323.418324 232.014163 
L 327.121404 243.078887 
L 330.695948 249.970217 
L 334.127562 252 
L 337.402428 248.965546 
L 340.50736 241.16987 
L 343.429856 229.391429 
L 346.158147 214.806393 
L 348.681247 198.871191 
L 350.988998 183.177077 
L 353.072105 169.291229 
L 354.922182 158.600258 
L 356.53178 152.171739 
L 357.894415 150.647611 
L 359.004602 154.180069 
L 359.857871 162.41637 
L 360.450785 174.534056 
L 360.780958 189.323081 
L 360.847059 205.306646 
L 360.648822 220.888669 
L 360.187046 234.513163 
L 359.463591 244.819617 
L 358.481368 250.778852 
L 357.244334 251.795791 
L 355.757469 247.768885 
L 354.026761 239.100252 
L 352.059178 226.655523 
L 349.862643 211.6774 
L 347.446001 195.661565 
L 344.818982 180.207323 
L 341.992166 166.857902 
L 338.976934 156.946343 
L 335.785428 151.462393 
L 332.430499 150.953668 
L 328.925655 155.470966 
L 325.28501 164.563202 
L 321.523224 177.322444 
L 317.655443 192.474584 
L 313.697242 208.506561 
L 309.664559 223.81746 
L 305.573633 236.878368 
L 301.440935 246.385051 
L 297.283108 251.388194 
L 293.116892 251.388194 
L 288.959065 246.385051 
L 284.826367 236.878368 
L 280.735441 223.81746 
L 276.702758 208.506561 
L 272.744557 192.474584 
L 268.876776 177.322444 
L 265.11499 164.563202 
L 261.474345 155.470966 
L 257.969501 150.953668 
L 254.614572 151.462393 
L 251.423066 156.946343 
L 248.407834 166.857902 
L 245.581018 180.207323 
L 242.953999 195.661565 
L 240.537357 211.6774 
L 238.340822 226.655523 
L 236.373239 239.100252 
L 234.642531 247.768885 
L 233.155666 251.795791 
L 231.918632 250.778852 
L 230.936409 244.819617 
L 230.212954 234.513163 
L 229.751178 220.888669 
L 229.552941 205.306646 
L 229.619042 189.323081 
L 229.949215 174.534056 
L 230.542129 162.41637 
L 231.395398 154.180069 
L 232.505585 150.647611 
L 233.86822 152.171739 
L 235.477818 158.600258 
L 237.327895 169.291229 
L 239.411002 183.177077 
L 241.718753 198.871191 
L 244.241853 214.806393 
L 246.970144 229.391429 
L 249.89264 241.16987 
L 252.997572 248.965546 
L 256.272438 252 
L 259.704052 249.970217 
L 263.278596 243.078887 
L 266.981676 232.014163 
L 270.798381 217.880943 
L 274.713343 202.09054 
L 278.710798 186.219747 
L 282.774648 171.853386 
L 286.888532 160.426051 
L 291.035882 153.078848 
L 295.2 150.545455 
" style="fill:none;stroke:#0000ff;stroke-linecap:square;"/>
   </g>
   <g id="patch_13">
    <path d="M 360.847059 252 
L 360.847059 150.545455 
" style="fill:none;stroke:#000000;stroke-linecap:square;stroke-linejoin:miter;"/>
   </g>
   <g id="patch_14">
    <path d="M 229.552941 252 
L 229.552941 150.545455 
" style="fill:none;stroke:#000000;stroke-linecap:square;stroke-linejoin:miter;"/>
   </g>
   <g id="patch_15">
    <path d="M 229.552941 252 
L 360.847059 252 
" style="fill:none;stroke:#000000;stroke-linecap:square;stroke-linejoin:miter;"/>
   </g>
   <g id="patch_16">
    <path d="M 229.552941 150.545455 
L 360.847059 150.545455 
" style="fill:none;stroke:#000000;stroke-linecap:square;stroke-linejoin:miter;"/>
   </g>
   <g id="matplotlib.axis_5"/>
   <g id="matplotlib.axis_6"/>
   <g id="text_3">
    <!-- subplot(235) -->
    <defs>
     <path d="M 10.796875 72.90625 
L 49.515625 72.90625 
L 49.515625 64.59375 
L 19.828125 64.59375 
L 19.828125 46.734375 
Q 21.96875 47.46875 24.109375 47.828125 
Q 26.265625 48.1875 28.421875 48.1875 
Q 40.625 48.1875 47.75 41.5 
Q 54.890625 34.8125 54.890625 23.390625 
Q 54.890625 11.625 47.5625 5.09375 
Q 40.234375 -1.421875 26.90625 -1.421875 
Q 22.3125 -1.421875 17.546875 -0.640625 
Q 12.796875 0.140625 7.71875 1.703125 
L 7.71875 11.625 
Q 12.109375 9.234375 16.796875 8.0625 
Q 21.484375 6.890625 26.703125 6.890625 
Q 35.15625 6.890625 40.078125 11.328125 
Q 45.015625 15.765625 45.015625 23.390625 
Q 45.015625 31 40.078125 35.4375 
Q 35.15625 39.890625 26.703125 39.890625 
Q 22.75 39.890625 18.8125 39.015625 
Q 14.890625 38.140625 10.796875 36.28125 
z
" id="BitstreamVeraSans-Roman-35"/>
    </defs>
    <g transform="translate(256.8290625 145.545454545)scale(0.12 -0.12)">
     <use xlink:href="#BitstreamVeraSans-Roman-73"/>
     <use x="52.099609375" xlink:href="#BitstreamVeraSans-Roman-75"/>
     <use x="115.478515625" xlink:href="#BitstreamVeraSans-Roman-62"/>
     <use x="178.955078125" xlink:href="#BitstreamVeraSans-Roman-70"/>
     <use x="242.431640625" xlink:href="#BitstreamVeraSans-Roman-6c"/>
     <use x="270.21484375" xlink:href="#BitstreamVeraSans-Roman-6f"/>
     <use x="331.396484375" xlink:href="#BitstreamVeraSans-Roman-74"/>
     <use x="370.60546875" xlink:href="#BitstreamVeraSans-Roman-28"/>
     <use x="409.619140625" xlink:href="#BitstreamVeraSans-Roman-32"/>
     <use x="473.2421875" xlink:href="#BitstreamVeraSans-Roman-33"/>
     <use x="536.865234375" xlink:href="#BitstreamVeraSans-Roman-35"/>
     <use x="600.48828125" xlink:href="#BitstreamVeraSans-Roman-29"/>
    </g>
   </g>
  </g>
 </g>
 <defs>
  <clipPath id="pcd1ffb02c6">
   <rect height="101.454545455" width="131.294117647" x="387.105882353" y="28.8"/>
  </clipPath>
  <clipPath id="pdc88945bc4">
   <rect height="101.454545455" width="131.294117647" x="229.552941176" y="150.545454545"/>
  </clipPath>
  <clipPath id="pe2c9dd0896">
   <rect height="101.454545455" width="131.294117647" x="72.0" y="28.8"/>
  </clipPath>
 </defs>
</svg>
